<svg width="22" height="22" viewBox="0 0 22 22" fill="none" xmlns="http://www.w3.org/2000/svg">
<g id="003-instagram-logo" clip-path="url(#clip0_28_765)">
<g id="Vector">
<path d="M15.7794 0.333496H6.22056C2.97444 0.333496 0.333496 2.97456 0.333496 6.22069V15.7795C0.333496 19.0258 2.97444 21.6667 6.22056 21.6667H15.7794C19.0258 21.6667 21.6667 19.0256 21.6667 15.7795V6.22069C21.6668 2.97456 19.0258 0.333496 15.7794 0.333496ZM19.774 15.7795C19.774 17.9821 17.9821 19.7739 15.7795 19.7739H6.22056C4.01812 19.774 2.22628 17.9821 2.22628 15.7795V6.22069C2.22628 4.01824 4.01812 2.22628 6.22056 2.22628H15.7794C17.982 2.22628 19.7739 4.01824 19.7739 6.22069L19.774 15.7795Z" fill="#777777"/>
<path d="M11 5.50365C7.96892 5.50365 5.503 7.96957 5.503 11.0007C5.503 14.0317 7.96892 16.4975 11 16.4975C14.0311 16.4975 16.4971 14.0317 16.4971 11.0007C16.4971 7.96957 14.0311 5.50365 11 5.50365ZM11 14.6045C9.01273 14.6045 7.39579 12.9878 7.39579 11.0005C7.39579 9.01312 9.0126 7.39631 11 7.39631C12.9875 7.39631 14.6043 9.01312 14.6043 11.0005C14.6043 12.9878 12.9873 14.6045 11 14.6045Z" fill="#777777"/>
<path d="M16.7277 3.89823C16.3631 3.89823 16.0048 4.04587 15.7473 4.30455C15.4885 4.56197 15.3397 4.92034 15.3397 5.28628C15.3397 5.65108 15.4886 6.00932 15.7473 6.268C16.0047 6.52542 16.3631 6.67432 16.7277 6.67432C17.0937 6.67432 17.4508 6.52542 17.7095 6.268C17.9681 6.00932 18.1158 5.65095 18.1158 5.28628C18.1158 4.92034 17.9681 4.56197 17.7095 4.30455C17.452 4.04587 17.0937 3.89823 16.7277 3.89823Z" fill="#777777"/>
</g>
</g>
<defs>
<clipPath id="clip0_28_765">
<rect width="21.3333" height="21.3333" fill="white" transform="translate(0.333496 0.333496)"/>
</clipPath>
</defs>
</svg>
