<?xml version="1.0" encoding="UTF-8"?>
<svg id="a" data-name="Layer 1" xmlns="http://www.w3.org/2000/svg" viewBox="0 0 120.67 39.51">
  <path d="m23.4,0c1.13,0,1.69.56,1.69,1.69v2.43c0,1.07-.56,1.69-1.69,1.69h-14.22c-1.07,0-1.69.56-1.69,1.69v5.05c0,1.07.62,1.69,1.69,1.69h5.36c1.13,0,1.69.56,1.69,1.69v2.58c0,1.07-.56,1.69-1.69,1.69h-5.36c-1.07,0-1.69.56-1.69,1.69v15.9c0,1.07-.56,1.69-1.69,1.69H1.69c-1.07,0-1.69-.62-1.69-1.69V1.69C0,.56.62,0,1.69,0h21.71Z"/>
  <path d="m22.93,13.61c.48,0,.72.24.72.72v24.46c0,.46-.24.72-.72.72h-3.36c-.46,0-.72-.26-.72-.72V14.33c0-.48.26-.72.72-.72h3.36Z"/>
  <path d="m28.53,13.61c0-3.25.69-11.95,12.34-11.95,10.32,0,12.05,6.78,12.29,10.62.05.88-.39,1.43-1.28,1.62l-5.55,1.23c-.98.2-1.52-.25-1.62-1.28-.2-2.36-1.03-3.74-3.84-3.74-3.64,0-3.88,2.31-3.88,6.1v7.08c0,3.79.25,6.1,3.88,6.1s3.88-2.31,3.88-4.72h-2.85c-.93,0-1.48-.54-1.48-1.48v-3.93c0-.98.54-1.48,1.48-1.48h9.83c.98,0,1.48.49,1.48,1.48v6.64c0,3.24-.69,11.95-12.34,11.95s-12.34-8.7-12.34-11.95v-12.29Z"/>
  <path d="m57.7,13.76c.48,0,.72.24.72.72v11.23c0,.46.26.72.72.72h5.35c.48,0,.72.24.72.72v2.69c0,.48-.24.72-.72.72h-9.48c-.46,0-.72-.26-.72-.72v-15.36c0-.48.26-.72.72-.72h2.69Z"/>
  <path d="m119.95,33.18c.48,0,.72.24.72.72v1.34c0,.48-.24.72-.72.72H55.01c-.46,0-.72-.26-.72-.72v-1.29c0-.48.26-.72.72-.72l64.94-.06Z"/>
  <path d="m78.23,29.74c0,.53-.24.82-.72.82h-2.69c-.46,0-.72-.24-.72-.72v-2.09c0-.48-.24-.72-.72-.72h-2.06c-.46,0-.72.24-.72.72v2.09c0,.48-.24.72-.72.72h-2.69c-.46,0-.72-.29-.72-.82v-10.18c0-3.02.48-6.24,5.88-6.24s5.88,3.22,5.88,6.24v10.18Zm-4.13-10.18c0-1.15-.17-1.73-1.75-1.73s-1.75.58-1.75,1.73v2.62c0,.46.26.72.72.72h2.06c.48-.02.72-.26.72-.74v-2.59Z"/>
  <path d="m84.76,13.76c.41,0,.67.17.84.55l3.26,7.99c.1.22.29.17.29-.07v-7.75c0-.48.26-.72.72-.72h2.69c.48,0,.72.24.72.72v15.36c0,.46-.24.72-.72.72h-3.53c-.41,0-.67-.17-.84-.55l-3.26-7.99c-.1-.22-.29-.17-.29.07v7.75c0,.46-.24.72-.72.72h-2.69c-.46,0-.72-.26-.72-.72v-15.36c0-.48.26-.72.72-.72h3.53Z"/>
  <path d="m95.44,19.16c0-1.58.34-5.83,6.02-5.83,5.11,0,5.9,3.43,6,5.28.02.34-.19.6-.53.67l-2.66.6c-.5.1-.89-.24-.96-.74-.12-1.06-.55-1.68-1.85-1.68-1.78,0-1.9,1.13-1.9,2.98v3.46c0,1.85.12,2.98,1.9,2.98,1.32,0,1.68-.62,1.82-1.73.07-.5.46-.82.94-.7l2.71.6c.34.07.55.34.53.7-.1,1.82-.89,5.26-6,5.26-5.69,0-6.02-4.25-6.02-5.83v-6Z"/>
  <path d="m119.92,13.76c.48,0,.72.24.72.72v2.69c0,.46-.24.72-.72.72h-5.81c-.46,0-.72.24-.72.72v.77c0,.46.26.72.72.72h3.72c.48,0,.72.24.72.72v2.69c0,.46-.24.72-.72.72h-3.72c-.46,0-.72.24-.72.72v.77c0,.46.26.72.72.72h5.81c.48,0,.72.24.72.72v2.69c0,.48-.24.72-.72.72h-10.08c-.46,0-.72-.26-.72-.72v-15.36c0-.48.26-.72.72-.72h10.08Z"/>
</svg>