<svg width="22" height="22" viewBox="0 0 22 22" fill="none" xmlns="http://www.w3.org/2000/svg">
<g id="004-twitter" clip-path="url(#clip0_28_769)">
<path id="Vector" d="M21.6668 4.3855C20.8735 4.7335 20.0282 4.96416 19.1468 5.07616C20.0535 4.53483 20.7455 3.68416 21.0708 2.65883C20.2255 3.16283 19.2922 3.51883 18.2975 3.7175C17.4948 2.86283 16.3508 2.3335 15.1028 2.3335C12.6815 2.3335 10.7322 4.29883 10.7322 6.70816C10.7322 7.05483 10.7615 7.38816 10.8335 7.7055C7.1975 7.52816 3.98016 5.7855 1.81883 3.13083C1.4415 3.7855 1.22016 4.53483 1.22016 5.3415C1.22016 6.85616 2.00016 8.19883 3.16283 8.97616C2.46016 8.96283 1.77083 8.75883 1.18683 8.4375C1.18683 8.45083 1.18683 8.46816 1.18683 8.4855C1.18683 10.6108 2.70283 12.3762 4.69083 12.7828C4.33483 12.8802 3.94683 12.9268 3.54416 12.9268C3.26416 12.9268 2.9815 12.9108 2.71616 12.8522C3.28283 14.5842 4.89083 15.8575 6.80283 15.8988C5.31483 17.0628 3.4255 17.7642 1.38016 17.7642C1.0215 17.7642 0.677496 17.7482 0.333496 17.7042C2.27083 18.9535 4.56683 19.6668 7.04283 19.6668C15.0908 19.6668 19.4908 13.0002 19.4908 7.2215C19.4908 7.02816 19.4842 6.8415 19.4748 6.65616C20.3428 6.04016 21.0722 5.27083 21.6668 4.3855Z" fill="#777777"/>
</g>
<defs>
<clipPath id="clip0_28_769">
<rect width="21.3333" height="21.3333" fill="white" transform="translate(0.333496 0.333496)"/>
</clipPath>
</defs>
</svg>
