<svg xmlns="http://www.w3.org/2000/svg" width="26" height="24" viewBox="0 0 26 24" fill="none">
<path d="M13 5.42376C14.4013 2.45963 17.6048 1.17176 20.5734 2.12846C23.542 3.08516 25.5305 7.79506 23.0034 10.8737L13 22.1824" fill="#B5FFFF"/>
<path d="M13 5.42376C14.4013 2.45963 17.6048 1.17176 20.5734 2.12846C23.542 3.08516 25.5305 7.79506 23.0034 10.8737L13 22.1824" stroke="#3FD1E1" stroke-width="2" stroke-linecap="round" stroke-linejoin="round"/>
<path d="M13 5.42376C11.5987 2.45963 8.39518 1.17176 5.42657 2.12846C2.45796 3.08516 0.465383 7.79506 2.9966 10.8737L13 22.1824" fill="#B5FFFF"/>
<path d="M13 5.42376C11.5987 2.45963 8.39518 1.17176 5.42657 2.12846C2.45796 3.08516 0.465383 7.79506 2.9966 10.8737L13 22.1824" stroke="#3FD1E1" stroke-width="2" stroke-linecap="round" stroke-linejoin="round"/>
<path d="M22.0314 3.9436L11.8944 12.607L8.65039 9.33219" stroke="#3FD1E1" stroke-width="2" stroke-linecap="round" stroke-linejoin="round"/>
</svg>