<?xml version="1.0" encoding="UTF-8"?>
<svg id="a" data-name="Layer 1" xmlns="http://www.w3.org/2000/svg" viewBox="0 0 60.74 61.72">
  <path d="m48,29.15c-3.21,6.18-10.42,13.38-15.15,16.69-6.17.14-15.68-.2-22.2-3.88C7.59,33.03,1,13.81,1,13.81L38.35,1s6.49,18.93,9.65,28.15Z" style="fill: #ffcf8a; stroke: #f77f1e; stroke-linecap: round; stroke-linejoin: round; stroke-width: 2px;"/>
  <path d="m52.42,55.06c-6.1,3.41-16.11,5.48-21.91,5.66-5.28-3.27-13.09-8.76-16.56-15.42,2.32-9.15,7.32-28.84,7.32-28.84l38.48,9.77-7.32,28.84Z" style="fill: #ffcf8a; stroke: #f77f1e; stroke-linecap: round; stroke-linejoin: round; stroke-width: 2px;"/>
  <circle cx="28.86" cy="28.97" r="2.96" style="fill: #f77f1e; stroke: #f77f1e; stroke-linecap: round; stroke-linejoin: round; stroke-width: 2px;"/>
  <circle cx="45.53" cy="33.86" r="2.96" style="fill: #f77f1e; stroke: #f77f1e; stroke-linecap: round; stroke-linejoin: round; stroke-width: 2px;"/>
  <path d="m42.15,44.68c-1.09,4.45-5.06,5.15-9.49,4.07s-7.63-3.53-6.55-7.99" style="fill: #f77f1e; stroke: #f77f1e; stroke-linejoin: round; stroke-width: 2px;"/>
</svg>