<?xml version="1.0" encoding="UTF-8"?>
<svg id="a" data-name="Layer 1" xmlns="http://www.w3.org/2000/svg" viewBox="0 0 50 55.29">
  <g>
    <path d="m5.56,53.29c-1.96,0-3.56-1.6-3.56-3.56V2h1.13c.8,2.4,2.99,4.13,5.57,4.13,2.35,0,4.39-1.44,5.33-3.52.94,2.08,2.98,3.52,5.33,3.52,2.49,0,4.63-1.62,5.49-3.9.86,2.28,2.99,3.9,5.48,3.9s4.62-1.62,5.48-3.9c.86,2.28,3,3.9,5.49,3.9s4.77-1.73,5.57-4.13h1.13v47.73c0,1.96-1.6,3.56-3.56,3.56H5.56Z" style="fill: #004764;"/>
    <path d="m24.84,5.84c1.42,1.42,3.36,2.29,5.49,2.29s4.06-.87,5.48-2.29c1.42,1.42,3.36,2.29,5.49,2.29,1.76,0,3.39-.6,4.7-1.6v43.2c0,.86-.7,1.56-1.56,1.56H5.56c-.86,0-1.56-.7-1.56-1.56V6.53c1.31,1.01,2.94,1.6,4.7,1.6,2.05,0,3.92-.81,5.33-2.14,1.41,1.33,3.28,2.14,5.33,2.14s4.06-.87,5.49-2.29M50,0h-4.81c0,2.28-1.75,4.13-3.89,4.13s-3.89-1.85-3.89-4.13h-3.19c0,2.28-1.74,4.13-3.89,4.13s-3.89-1.85-3.89-4.13h-3.19c0,2.28-1.74,4.13-3.89,4.13s-3.89-1.85-3.89-4.13h-2.88c0,2.28-1.74,4.13-3.89,4.13s-3.89-1.85-3.89-4.13H0v49.73c0,3.07,2.49,5.56,5.56,5.56h38.88c3.07,0,5.56-2.49,5.56-5.56V0h0Z" style="fill: #004764;"/>
  </g>
  <rect x="5" y="6.24" width="40" height="43.99" style="fill: #a7c7ff;"/>
  <rect x="8.7" y="10.03" width="32.59" height="6.37" style="fill: #004764;"/>
  <rect x="8.7" y="27.05" width="20.07" height="6.37" style="fill: #004764;"/>
  <rect x="34.93" y="27.05" width="6.37" height="6.37" style="fill: #004764;"/>
  <rect x="8.7" y="38.86" width="20.07" height="6.37" style="fill: #004764;"/>
  <rect x="34.93" y="38.86" width="6.37" height="6.37" style="fill: #004764;"/>
</svg>